<svg width="37" height="38" viewBox="0 0 37 38" fill="none" xmlns="http://www.w3.org/2000/svg">
<g clip-path="url(#clip0_1770_149)">
<rect width="37" height="38" fill="white"/>
<circle cx="18.5" cy="19" r="18.5" fill="white"/>
<path d="M33.2107 9.53721C31.3846 6.64566 28.7414 4.23012 25.7085 3.00303L24.8107 2.69393C23.8198 2.38285 22.7892 2.22142 21.752 2.21484C18.4666 2.2303 15.8081 4.99048 15.8081 8.39666C15.8081 9.81539 16.2692 11.1198 17.0422 12.1583L16.6709 11.6638C16.849 11.9327 17.0422 12.1985 17.2659 12.4674C18.2094 13.6265 19.5485 14.8304 21.2833 16.1966C25.5518 19.5502 28.3198 22.5268 28.5481 26.2158C28.6029 26.7134 28.6364 27.2218 28.6364 27.7365C28.6364 29.6111 28.2346 31.5955 27.5498 32.991H27.5559C27.5559 32.991 27.2622 33.5366 27.4464 33.6958C27.5407 33.7777 27.7446 33.8395 28.1007 33.6185C30.0126 32.3551 31.6585 30.7188 32.9429 28.8044C34.8358 25.9707 35.8691 22.6356 35.9148 19.2118C35.9655 15.7876 35.0253 12.4236 33.2107 9.53721Z" fill="#F4732A"/>
<path d="M20.2624 22.1404L17.5887 19.8995C11.9887 15.7499 9.07608 11.2743 10.6724 5.75546C10.8169 5.25318 10.995 4.76482 11.1989 4.28727V4.28109C11.1989 4.28109 11.5946 3.43882 10.7333 3.85455C8.1499 5.27923 5.96979 7.35338 4.40154 9.87853C2.83329 12.4037 1.92937 15.2953 1.77629 18.2767C1.5751 22.0805 2.60088 25.8471 4.69803 29.0053C5.54484 30.213 6.58064 31.2717 7.76434 32.1395H7.75977C13.6641 36.5533 18.7285 34.2305 18.7285 34.2305H18.733C19.989 33.6921 21.0597 32.7881 21.8102 31.6323C22.5607 30.4765 22.9572 29.1209 22.9498 27.7365C22.9554 26.6567 22.7158 25.5902 22.2494 24.6199C21.783 23.6496 21.1025 22.8016 20.2609 22.1419L20.2624 22.1404Z" fill="#092540"/>
</g>
<defs>
<clipPath id="clip0_1770_149">
<rect width="37" height="38" fill="white"/>
</clipPath>
</defs>
</svg>
